<?xml version="1.0" standalone="no"?>
<!DOCTYPE svg PUBLIC "-//W3C//DTD SVG 20010904//EN"
 "http://www.w3.org/TR/2001/REC-SVG-20010904/DTD/svg10.dtd">
<svg version="1.0" xmlns="http://www.w3.org/2000/svg"
 width="260.000000pt" height="260.000000pt" viewBox="0 0 260.000000 260.000000"
 preserveAspectRatio="xMidYMid meet">
<metadata>
Created by potrace 1.11, written by Peter Selinger 2001-2013
</metadata>
<g transform="translate(0.000000,260.000000) scale(0.100000,-0.100000)"
fill="#000000" stroke="none">
<path d="M241 2580 c-113 -41 -192 -125 -225 -241 -15 -50 -16 -161 -14 -1065
l3 -1009 29 -57 c36 -73 103 -140 175 -175 l56 -28 1020 -2 c1012 -3 1020 -3
1075 18 112 42 182 114 220 225 19 55 20 91 20 1058 0 988 -1 1003 -21 1056
-41 109 -116 183 -224 220 -56 19 -85 20 -1059 19 -962 0 -1003 -1 -1055 -19z
m1658 -257 c-7 -17 -11 -102 -12 -210 0 -200 4 -216 63 -251 24 -15 54 -18
214 -17 l186 1 0 -42 0 -42 -234 0 -234 0 -54 50 c-289 275 -754 267 -1023
-18 l-31 -32 -262 0 -262 0 0 250 c0 203 3 254 15 278 32 62 -5 59 857 60
l788 0 -11 -27z m351 -102 c12 -1 15 -18 14 -93 -1 -51 -2 -98 -3 -104 -1 -16
-200 -15 -202 0 -6 44 -4 183 2 191 6 8 95 11 189 6z m-815 -472 c128 -29 248
-122 310 -239 115 -221 52 -480 -151 -621 -83 -57 -167 -81 -279 -81 -203 1
-388 145 -451 351 -18 59 -18 181 0 247 36 136 133 251 262 310 108 50 192 59
309 33z m-810 -259 c-19 -60 -31 -152 -28 -224 14 -433 399 -762 823 -705 357
48 627 349 633 704 1 84 -6 158 -22 213 l-10 32 165 0 164 0 0 -585 c0 -643 1
-628 -60 -660 -43 -22 -1922 -23 -1976 0 -65 27 -64 17 -64 665 l0 580 191 0
c184 0 190 -1 184 -20z"/>
</g>
</svg>
